<?xml version="1.0" encoding="UTF-8"?>
<svg width="800px" height="600px" viewBox="0 0 800 600" version="1.1" xmlns="http://www.w3.org/2000/svg" xmlns:xlink="http://www.w3.org/1999/xlink">
    <title>Ayurveda Background</title>
    <defs>
        <linearGradient x1="0%" y1="0%" x2="100%" y2="100%" id="linearGradient-1">
            <stop stop-color="#f0f7ee" offset="0%"></stop>
            <stop stop-color="#e6f0e8" offset="100%"></stop>
        </linearGradient>
        <linearGradient x1="50%" y1="0%" x2="50%" y2="100%" id="linearGradient-2">
            <stop stop-color="#5a8f7b" stop-opacity="0.8" offset="0%"></stop>
            <stop stop-color="#3e6b5b" stop-opacity="0.6" offset="100%"></stop>
        </linearGradient>
        <linearGradient x1="50%" y1="0%" x2="50%" y2="100%" id="linearGradient-3">
            <stop stop-color="#7fb174" stop-opacity="0.8" offset="0%"></stop>
            <stop stop-color="#5a8f7b" stop-opacity="0.6" offset="100%"></stop>
        </linearGradient>
        <linearGradient x1="50%" y1="0%" x2="50%" y2="100%" id="linearGradient-4">
            <stop stop-color="#f3c677" stop-opacity="0.8" offset="0%"></stop>
            <stop stop-color="#d35656" stop-opacity="0.6" offset="100%"></stop>
        </linearGradient>
    </defs>
    <g id="Ayurveda-Background" stroke="none" stroke-width="1" fill="none" fill-rule="evenodd">
        <!-- Background -->
        <rect id="Background" fill="url(#linearGradient-1)" x="0" y="0" width="800" height="600"></rect>
        
        <!-- Decorative Elements -->
        <circle id="Circle1" fill="#5a8f7b" opacity="0.05" cx="100" cy="100" r="50"></circle>
        <circle id="Circle2" fill="#5a8f7b" opacity="0.05" cx="700" cy="500" r="80"></circle>
        <circle id="Circle3" fill="#f3c677" opacity="0.05" cx="200" cy="500" r="60"></circle>
        <circle id="Circle4" fill="#f3c677" opacity="0.05" cx="600" cy="150" r="70"></circle>
        
        <!-- Lotus Flower -->
        <g id="Lotus" transform="translate(400, 300)">
            <!-- Outer Petals -->
            <path d="M0,-120 C40,-110 70,-70 60,-20 C50,30 0,40 -50,30 C-100,20 -110,-30 -60,-80 C-30,-110 -20,-120 0,-120 Z" 
                  fill="url(#linearGradient-2)" opacity="0.3" transform="rotate(0)"></path>
            <path d="M0,-120 C40,-110 70,-70 60,-20 C50,30 0,40 -50,30 C-100,20 -110,-30 -60,-80 C-30,-110 -20,-120 0,-120 Z" 
                  fill="url(#linearGradient-2)" opacity="0.3" transform="rotate(60)"></path>
            <path d="M0,-120 C40,-110 70,-70 60,-20 C50,30 0,40 -50,30 C-100,20 -110,-30 -60,-80 C-30,-110 -20,-120 0,-120 Z" 
                  fill="url(#linearGradient-2)" opacity="0.3" transform="rotate(120)"></path>
            <path d="M0,-120 C40,-110 70,-70 60,-20 C50,30 0,40 -50,30 C-100,20 -110,-30 -60,-80 C-30,-110 -20,-120 0,-120 Z" 
                  fill="url(#linearGradient-2)" opacity="0.3" transform="rotate(180)"></path>
            <path d="M0,-120 C40,-110 70,-70 60,-20 C50,30 0,40 -50,30 C-100,20 -110,-30 -60,-80 C-30,-110 -20,-120 0,-120 Z" 
                  fill="url(#linearGradient-2)" opacity="0.3" transform="rotate(240)"></path>
            <path d="M0,-120 C40,-110 70,-70 60,-20 C50,30 0,40 -50,30 C-100,20 -110,-30 -60,-80 C-30,-110 -20,-120 0,-120 Z" 
                  fill="url(#linearGradient-2)" opacity="0.3" transform="rotate(300)"></path>
            
            <!-- Inner Petals -->
            <path d="M0,-80 C30,-70 50,-40 40,-10 C30,20 0,30 -30,20 C-60,10 -70,-20 -40,-50 C-20,-70 -10,-80 0,-80 Z" 
                  fill="url(#linearGradient-3)" opacity="0.4" transform="rotate(30)"></path>
            <path d="M0,-80 C30,-70 50,-40 40,-10 C30,20 0,30 -30,20 C-60,10 -70,-20 -40,-50 C-20,-70 -10,-80 0,-80 Z" 
                  fill="url(#linearGradient-3)" opacity="0.4" transform="rotate(90)"></path>
            <path d="M0,-80 C30,-70 50,-40 40,-10 C30,20 0,30 -30,20 C-60,10 -70,-20 -40,-50 C-20,-70 -10,-80 0,-80 Z" 
                  fill="url(#linearGradient-3)" opacity="0.4" transform="rotate(150)"></path>
            <path d="M0,-80 C30,-70 50,-40 40,-10 C30,20 0,30 -30,20 C-60,10 -70,-20 -40,-50 C-20,-70 -10,-80 0,-80 Z" 
                  fill="url(#linearGradient-3)" opacity="0.4" transform="rotate(210)"></path>
            <path d="M0,-80 C30,-70 50,-40 40,-10 C30,20 0,30 -30,20 C-60,10 -70,-20 -40,-50 C-20,-70 -10,-80 0,-80 Z" 
                  fill="url(#linearGradient-3)" opacity="0.4" transform="rotate(270)"></path>
            <path d="M0,-80 C30,-70 50,-40 40,-10 C30,20 0,30 -30,20 C-60,10 -70,-20 -40,-50 C-20,-70 -10,-80 0,-80 Z" 
                  fill="url(#linearGradient-3)" opacity="0.4" transform="rotate(330)"></path>
            
            <!-- Center -->
            <circle cx="0" cy="0" r="25" fill="url(#linearGradient-4)" opacity="0.5"></circle>
        </g>
        
        <!-- Decorative Lines -->
        <path d="M100,300 C150,250 200,240 250,260 C300,280 350,320 400,300 C450,280 500,220 550,240 C600,260 650,320 700,300" 
              stroke="#5a8f7b" stroke-width="2" opacity="0.1"></path>
        <path d="M100,350 C150,370 200,350 250,330 C300,310 350,330 400,350 C450,370 500,350 550,330 C600,310 650,330 700,350" 
              stroke="#5a8f7b" stroke-width="2" opacity="0.1"></path>
              
        <!-- Small Decorative Elements -->
        <circle cx="150" cy="200" r="5" fill="#d35656" opacity="0.3"></circle>
        <circle cx="650" cy="400" r="5" fill="#d35656" opacity="0.3"></circle>
        <circle cx="250" cy="450" r="5" fill="#d35656" opacity="0.3"></circle>
        <circle cx="550" cy="150" r="5" fill="#d35656" opacity="0.3"></circle>
        
        <circle cx="200" cy="150" r="3" fill="#f3c677" opacity="0.4"></circle>
        <circle cx="600" cy="450" r="3" fill="#f3c677" opacity="0.4"></circle>
        <circle cx="300" cy="400" r="3" fill="#f3c677" opacity="0.4"></circle>
        <circle cx="500" cy="200" r="3" fill="#f3c677" opacity="0.4"></circle>
    </g>
</svg>
