<?xml version="1.0" encoding="UTF-8"?>
<svg width="800px" height="600px" viewBox="0 0 800 600" version="1.1" xmlns="http://www.w3.org/2000/svg" xmlns:xlink="http://www.w3.org/1999/xlink">
    <title>Herbs Pattern</title>
    <defs>
        <linearGradient x1="0%" y1="0%" x2="100%" y2="100%" id="linearGradient-1">
            <stop stop-color="#f0f7ee" offset="0%"></stop>
            <stop stop-color="#e6f0e8" offset="100%"></stop>
        </linearGradient>
    </defs>
    <g id="Herbs-Pattern" stroke="none" stroke-width="1" fill="none" fill-rule="evenodd">
        <!-- Background -->
        <rect id="Background" fill="url(#linearGradient-1)" x="0" y="0" width="800" height="600"></rect>
        
        <!-- Herb Pattern 1 - Top Left -->
        <g id="Herb1" transform="translate(100, 100)" opacity="0.1" fill="#5a8f7b">
            <path d="M0,0 C10,20 30,30 50,20 C40,40 50,60 70,70 C50,75 40,90 50,110 C30,100 10,110 0,130 C-10,110 -30,100 -50,110 C-40,90 -50,75 -70,70 C-50,60 -40,40 -50,20 C-30,30 -10,20 0,0 Z"></path>
            <line x1="0" y1="0" x2="0" y2="130" stroke="#5a8f7b" stroke-width="2"></line>
        </g>
        
        <!-- Herb Pattern 2 - Top Right -->
        <g id="Herb2" transform="translate(700, 150)" opacity="0.1" fill="#5a8f7b">
            <path d="M0,0 C5,15 20,20 30,15 C25,30 30,45 45,50 C30,55 25,65 30,80 C15,70 5,75 0,90 C-5,75 -15,70 -30,80 C-25,65 -30,55 -45,50 C-30,45 -25,30 -30,15 C-20,20 -5,15 0,0 Z"></path>
            <line x1="0" y1="0" x2="0" y2="90" stroke="#5a8f7b" stroke-width="2"></line>
        </g>
        
        <!-- Herb Pattern 3 - Bottom Left -->
        <g id="Herb3" transform="translate(150, 500)" opacity="0.1" fill="#5a8f7b">
            <path d="M0,0 C8,18 25,25 40,18 C32,35 40,52 55,60 C40,65 32,80 40,95 C25,85 8,92 0,110 C-8,92 -25,85 -40,95 C-32,80 -40,65 -55,60 C-40,52 -32,35 -40,18 C-25,25 -8,18 0,0 Z"></path>
            <line x1="0" y1="0" x2="0" y2="110" stroke="#5a8f7b" stroke-width="2"></line>
        </g>
        
        <!-- Herb Pattern 4 - Bottom Right -->
        <g id="Herb4" transform="translate(650, 450)" opacity="0.1" fill="#5a8f7b">
            <path d="M0,0 C6,16 22,22 35,16 C28,32 35,48 48,55 C35,60 28,72 35,85 C22,75 6,82 0,98 C-6,82 -22,75 -35,85 C-28,72 -35,60 -48,55 C-35,48 -28,32 -35,16 C-22,22 -6,16 0,0 Z"></path>
            <line x1="0" y1="0" x2="0" y2="98" stroke="#5a8f7b" stroke-width="2"></line>
        </g>
        
        <!-- Tulsi Leaf Pattern - Center Left -->
        <g id="TulsiLeaf1" transform="translate(250, 300)" opacity="0.1" fill="#7fb174">
            <path d="M0,0 C0,-20 10,-40 30,-50 C20,-30 30,-10 50,0 C30,10 20,30 30,50 C10,40 0,20 0,0 Z"></path>
            <path d="M-10,0 C-10,-15 -2,-30 10,-40 C0,-25 10,-10 25,0 C10,10 0,25 10,40 C-2,30 -10,15 -10,0 Z" transform="translate(-40, 0)"></path>
            <path d="M-10,0 C-10,-15 -2,-30 10,-40 C0,-25 10,-10 25,0 C10,10 0,25 10,40 C-2,30 -10,15 -10,0 Z" transform="translate(40, 0) scale(-1, 1)"></path>
            <line x1="0" y1="-50" x2="0" y2="50" stroke="#7fb174" stroke-width="2"></line>
        </g>
        
        <!-- Tulsi Leaf Pattern - Center Right -->
        <g id="TulsiLeaf2" transform="translate(550, 250)" opacity="0.1" fill="#7fb174">
            <path d="M0,0 C0,-15 8,-30 22,-38 C15,-22 22,-8 38,0 C22,8 15,22 22,38 C8,30 0,15 0,0 Z"></path>
            <path d="M-8,0 C-8,-12 -1,-24 8,-32 C0,-20 8,-8 20,0 C8,8 0,20 8,32 C-1,24 -8,12 -8,0 Z" transform="translate(-30, 0)"></path>
            <path d="M-8,0 C-8,-12 -1,-24 8,-32 C0,-20 8,-8 20,0 C8,8 0,20 8,32 C-1,24 -8,12 -8,0 Z" transform="translate(30, 0) scale(-1, 1)"></path>
            <line x1="0" y1="-38" x2="0" y2="38" stroke="#7fb174" stroke-width="2"></line>
        </g>
        
        <!-- Ginger Root Pattern - Top Center -->
        <g id="GingerRoot" transform="translate(400, 150)" opacity="0.1" fill="#f3c677">
            <path d="M0,0 C10,-5 20,0 25,10 C30,0 40,-5 50,5 C55,-5 65,-5 70,5 C60,15 65,25 75,30 C65,35 60,45 70,55 C60,60 55,70 65,80 C55,85 50,95 60,105 C50,110 45,120 55,130 C45,125 35,130 30,140 C20,130 10,135 0,145 C-10,135 -20,130 -30,140 C-35,130 -45,125 -55,130 C-45,120 -50,110 -60,105 C-50,95 -55,85 -65,80 C-55,70 -60,60 -70,55 C-60,45 -65,35 -75,30 C-65,25 -60,15 -70,5 C-65,-5 -55,-5 -50,5 C-40,-5 -30,0 -25,10 C-20,0 -10,-5 0,0 Z"></path>
        </g>
        
        <!-- Cinnamon Stick Pattern - Bottom Center -->
        <g id="CinnamonStick" transform="translate(400, 450)" opacity="0.1" fill="#d35656">
            <rect x="-60" y="-10" width="120" height="20" rx="10" ry="10"></rect>
            <rect x="-50" y="-8" width="100" height="16" rx="8" ry="8" fill="#f3c677" opacity="0.3"></rect>
            <line x1="-50" y1="0" x2="50" y2="0" stroke="#d35656" stroke-width="1" stroke-dasharray="5,3"></line>
        </g>
        
        <!-- Small Decorative Elements -->
        <circle cx="200" cy="200" r="5" fill="#d35656" opacity="0.1"></circle>
        <circle cx="600" cy="400" r="5" fill="#d35656" opacity="0.1"></circle>
        <circle cx="300" cy="450" r="5" fill="#d35656" opacity="0.1"></circle>
        <circle cx="500" cy="150" r="5" fill="#d35656" opacity="0.1"></circle>
        
        <circle cx="250" cy="150" r="3" fill="#f3c677" opacity="0.15"></circle>
        <circle cx="550" cy="450" r="3" fill="#f3c677" opacity="0.15"></circle>
        <circle cx="350" cy="400" r="3" fill="#f3c677" opacity="0.15"></circle>
        <circle cx="450" cy="200" r="3" fill="#f3c677" opacity="0.15"></circle>
    </g>
</svg>
