<?xml version="1.0" encoding="UTF-8"?>
<svg width="512" height="512" viewBox="0 0 512 512" fill="none" xmlns="http://www.w3.org/2000/svg">
  <rect width="512" height="512" rx="100" fill="#2C6E8E"/>
  <path d="M256 120C181.307 120 120 181.307 120 256C120 330.693 181.307 392 256 392C330.693 392 392 330.693 392 256C392 181.307 330.693 120 256 120ZM256 360C199.056 360 152 312.944 152 256C152 199.056 199.056 152 256 152C312.944 152 360 199.056 360 256C360 312.944 312.944 360 256 360Z" fill="white"/>
  <path d="M256 184C216.112 184 184 216.112 184 256C184 295.888 216.112 328 256 328C295.888 328 328 295.888 328 256C328 216.112 295.888 184 256 184ZM256 296C233.944 296 216 278.056 216 256C216 233.944 233.944 216 256 216C278.056 216 296 233.944 296 256C296 278.056 278.056 296 256 296Z" fill="#5CBBF5"/>
  <path d="M256 232C245.507 232 237 240.507 237 251C237 261.493 245.507 270 256 270C266.493 270 275 261.493 275 251C275 240.507 266.493 232 256 232Z" fill="#FF7E5F"/>
  <path d="M256 88C261.523 88 266 83.523 266 78C266 72.477 261.523 68 256 68C250.477 68 246 72.477 246 78C246 83.523 250.477 88 256 88Z" fill="white"/>
  <path d="M256 444C261.523 444 266 439.523 266 434C266 428.477 261.523 424 256 424C250.477 424 246 428.477 246 434C246 439.523 250.477 444 256 444Z" fill="white"/>
  <path d="M434 266C439.523 266 444 261.523 444 256C444 250.477 439.523 246 434 246C428.477 246 424 250.477 424 256C424 261.523 428.477 266 434 266Z" fill="white"/>
  <path d="M78 266C83.523 266 88 261.523 88 256C88 250.477 83.523 246 78 246C72.477 246 68 250.477 68 256C68 261.523 72.477 266 78 266Z" fill="white"/>
  <path d="M380.598 131.402C384.513 135.317 390.847 135.317 394.762 131.402C398.677 127.487 398.677 121.153 394.762 117.238C390.847 113.323 384.513 113.323 380.598 117.238C376.683 121.153 376.683 127.487 380.598 131.402Z" fill="white"/>
  <path d="M131.402 380.598C135.317 384.513 141.651 384.513 145.566 380.598C149.481 376.683 149.481 370.349 145.566 366.434C141.651 362.519 135.317 362.519 131.402 366.434C127.487 370.349 127.487 376.683 131.402 380.598Z" fill="white"/>
  <path d="M380.598 380.598C384.513 376.683 384.513 370.349 380.598 366.434C376.683 362.519 370.349 362.519 366.434 366.434C362.519 370.349 362.519 376.683 366.434 380.598C370.349 384.513 376.683 384.513 380.598 380.598Z" fill="white"/>
  <path d="M131.402 131.402C135.317 127.487 135.317 121.153 131.402 117.238C127.487 113.323 121.153 113.323 117.238 117.238C113.323 121.153 113.323 127.487 117.238 131.402C121.153 135.317 127.487 135.317 131.402 131.402Z" fill="white"/>
</svg>
